<svg width="53" height="54" viewBox="0 0 53 54" fill="none" xmlns="http://www.w3.org/2000/svg">
<path d="M28.3336 42.5464C26.045 47.1757 22.7309 50.4086 12.1595 54C14.0565 52.6729 18.6722 46.1881 23.2878 36.2044C27.5781 35.8187 35.2929 34.0094 36.7763 30.4179C31.157 36.0887 15.4462 35.9537 9.54562 32.7325C12.9922 32.2002 16.2899 31.5444 19.5324 30.8616C12.1981 31.5058 4.05868 28.8671 0.47976 25.2988C4.09728 25.6614 8.39859 25.4338 12.7937 25.156C6.7663 23.5705 1.65435 19.9597 0 16.3836C9.55664 19.7321 15.9921 19.2692 29.1552 22.8337C29.9493 21.1556 30.6883 19.7475 31.4162 18.6134C32.2058 17.3807 33.4021 16.2966 34.9069 15.4501C30.2306 13.9764 26.2105 11.0677 25.0249 8.71837C28.9512 9.92587 30.9861 10.6241 33.7653 10.709C34.5209 11.7312 35.6899 13.5675 38.37 14.2195C34.008 10.5315 33.1202 4.46721 36.0704 1.22289C37.9068 4.36305 38.8994 6.21862 40.6475 7.73084C40.3001 9.60952 40.4711 12.0167 42.164 13.4441C40.0905 8.08188 46.6142 1.48521 53 0C49.9615 5.50493 47.7667 9.74067 47.094 13.9687C48.6491 14.6014 49.4211 15.7124 48.7042 17.2555C51.4008 17.6142 52.8456 19.0454 52.2666 20.982C49.5093 20.2413 47.0333 21.5568 47.0333 21.5568C51.9522 37.6628 33.9749 42.2728 28.3336 42.5464Z" fill="#66BADF"/>
</svg>
